<svg width="508" height="476" viewBox="0 0 508 476" fill="none" xmlns="http://www.w3.org/2000/svg">
<path d="M346.734 389.771C382.442 431.684 395.943 455.905 403 501H151.119C164.966 462.273 177.066 444.107 204.23 416.266C194.033 394.418 185.56 366.101 171.102 347.535L108 327.336V278.542L113.258 268.835V258.342L122.198 245.488L113.258 220.566L153.223 190.398L158.481 172.821C284.822 12.2285 470.128 207.003 333.325 327.336C331.495 351.066 331.849 364.498 346.734 389.771Z" stroke="white" stroke-width="4"/>
<path d="M0 166L5.81667 231.378L31.9167 240L58.1833 231.378L64 166H0ZM51.3667 187.126H20.7333L21.4167 195.286H50.6833L48.4167 219.799L32.1 224.258V224.308H31.9167L15.4667 219.799L14.4667 207.278H22.4167L23 213.571L31.9167 215.967L40.8667 213.571L41.8667 203.297H14.05L11.9167 179.247H52.1L51.3667 187.126Z" fill="white"/>
<path d="M76 47L81.8167 113.261L108 122L134.183 113.261L140 47H76ZM128.183 60.3929L127.383 68.3114L108.167 76.5647L108.117 76.5815H126.7L124.567 101.124L108.2 105.929L91.7333 101.04L90.6667 88.6685H98.8167L99.35 95.0804L108.117 97.3069L117.233 94.7288L117.85 84.4163L90.1333 84.3326V84.3158L90.1 84.3326L89.5 76.5815L108.183 68.7634L109.267 68.3114H88.7833L87.8167 60.3929H128.183Z" fill="white"/>
<path d="M250 0H206C202.688 0 200 2.73549 200 6.10714V50.8929C200 54.2645 202.688 57 206 57H250C253.312 57 256 54.2645 256 50.8929V6.10714C256 2.73549 253.312 0 250 0ZM230.475 44.4549C230.475 50.0022 227.275 52.5342 222.612 52.5342C218.4 52.5342 215.962 50.3203 214.712 47.6357L219 45.002C219.825 46.4906 220.575 47.7502 222.388 47.7502C224.113 47.7502 225.212 47.0632 225.212 44.3786V26.1717H230.475V44.4549ZM242.925 52.5342C238.037 52.5342 234.875 50.1676 233.338 47.0632L237.625 44.544C238.75 46.4143 240.225 47.8011 242.812 47.8011C244.987 47.8011 246.388 46.6942 246.388 45.1547C246.388 43.3225 244.962 42.6737 242.55 41.5922L241.237 41.0196C237.438 39.3783 234.925 37.3045 234.925 32.9404C234.925 28.9199 237.938 25.8663 242.625 25.8663C245.975 25.8663 248.375 27.0496 250.1 30.154L246 32.8259C245.1 31.1846 244.125 30.5357 242.612 30.5357C241.075 30.5357 240.1 31.5281 240.1 32.8259C240.1 34.429 241.075 35.0779 243.338 36.083L244.65 36.6556C249.125 38.6022 251.638 40.5998 251.638 45.0784C251.638 49.8877 247.912 52.5342 242.925 52.5342Z" fill="white"/>
<path d="M362.537 53.9912C362.537 59.2925 357.573 59.17 357.048 59.17H346.936V48.9588H357.048C362.368 48.9588 362.537 52.9463 362.537 53.9912ZM356.269 44.85C356.352 44.85 361.074 44.975 361.074 40.3113C361.074 38.3713 360.635 35.8275 356.269 35.8275H346.936V44.85H356.269ZM382 28.3337V65.6662C381.993 68.1395 381.007 70.5093 379.258 72.2582C377.509 74.007 375.139 74.9927 372.666 75H335.334C332.861 74.9927 330.491 74.007 328.742 72.2582C326.993 70.5093 326.007 68.1395 326 65.6662V28.3337C326.007 25.8605 326.993 23.4907 328.742 21.7418C330.491 19.993 332.861 19.0073 335.334 19H372.666C375.139 19.0073 377.509 19.993 379.258 21.7418C381.007 23.4907 381.993 25.8605 382 28.3337ZM368.256 54.7325C368.256 52.0362 367.425 47.4462 362.125 46.3137V46.2225C364.989 45 366.792 42.6912 366.792 39.2675C366.792 38.3925 367.042 31.17 357.093 31.17H341.217V63.8363C357.246 63.8363 358.701 64.0463 361.667 63.1225C363.444 62.57 368.256 60.875 368.256 54.7325Z" fill="white"/>
<path d="M438.5 95C430.89 95 426.16 98.7683 424.25 106.333C427.1 102.565 430.434 101.148 434.225 102.083C436.391 102.622 437.958 104.18 439.668 105.908C442.461 108.742 445.625 112 452.75 112C460.359 112 465.09 108.232 467 100.667C464.15 104.435 460.815 105.852 457.025 104.917C454.859 104.378 453.32 102.82 451.581 101.092C448.788 98.2583 445.625 95 438.5 95ZM424.25 112C416.641 112 411.909 115.768 410 123.333C412.85 119.565 416.184 118.148 419.975 119.083C422.141 119.622 423.68 121.18 425.418 122.908C428.211 125.742 431.375 129 438.5 129C446.11 129 450.84 125.232 452.75 117.667C449.9 121.435 446.565 122.852 442.775 121.917C440.609 121.378 439.07 119.82 437.331 118.092C434.538 115.258 431.375 112 424.25 112Z" fill="white"/>
<path d="M478.882 183.5C480.745 182.572 482.24 181.042 483.125 179.157C484.009 177.273 484.231 175.145 483.754 173.119C483.278 171.093 482.13 169.287 480.498 167.995C478.866 166.702 476.846 166 474.764 166H458.236C456.154 166 454.134 166.702 452.502 167.995C450.87 169.287 449.722 171.093 449.246 173.119C448.769 175.145 448.991 177.273 449.875 179.157C450.76 181.042 452.255 182.572 454.118 183.5C452.581 184.265 451.287 185.444 450.383 186.903C449.479 188.363 449 190.047 449 191.764C449 193.481 449.479 195.164 450.383 196.624C451.287 198.084 452.581 199.263 454.118 200.028C452.646 200.761 451.396 201.875 450.499 203.254C449.601 204.632 449.088 206.226 449.013 207.869C448.937 209.512 449.302 211.146 450.069 212.601C450.837 214.056 451.979 215.28 453.378 216.145C454.777 217.011 456.382 217.487 458.026 217.525C459.671 217.562 461.296 217.16 462.733 216.359C464.17 215.559 465.367 214.388 466.2 212.97C467.033 211.552 467.472 209.936 467.472 208.291V197.423C468.322 198.519 469.408 199.409 470.65 200.028C471.892 200.647 473.257 200.978 474.644 200.996C476.031 201.015 477.404 200.721 478.662 200.136C479.92 199.551 481.029 198.69 481.908 197.617C482.788 196.544 483.414 195.286 483.741 193.938C484.067 192.59 484.086 191.186 483.795 189.829C483.504 188.473 482.911 187.2 482.061 186.104C481.21 185.008 480.124 184.118 478.882 183.5ZM482.056 175.236C482.053 177.168 481.285 179.021 479.919 180.388C478.553 181.755 476.701 182.524 474.769 182.528L474.764 182.528L474.755 182.528L467.472 182.528V167.944H474.764C476.697 167.947 478.55 168.716 479.917 170.083C481.284 171.45 482.053 173.303 482.056 175.236ZM469.105 184.472C468.495 184.946 467.947 185.495 467.472 186.105V184.472L469.105 184.472ZM450.944 175.236C450.947 173.303 451.716 171.45 453.083 170.083C454.45 168.716 456.303 167.947 458.236 167.944H465.528V182.528H458.236L458.232 182.528C456.299 182.524 454.447 181.755 453.081 180.388C451.715 179.021 450.947 177.168 450.944 175.236ZM458.236 215.583C457.278 215.584 456.329 215.396 455.444 215.029C454.559 214.663 453.754 214.126 453.076 213.449C452.399 212.772 451.861 211.968 451.494 211.083C451.127 210.198 450.939 209.249 450.939 208.291C450.939 207.333 451.127 206.385 451.494 205.5C451.861 204.615 452.399 203.81 453.076 203.133C453.754 202.456 454.559 201.919 455.444 201.553C456.329 201.187 457.278 200.999 458.236 201L465.528 201V208.291C465.526 210.224 464.757 212.078 463.39 213.445C462.023 214.812 460.169 215.581 458.236 215.583ZM465.528 199.055L458.236 199.055C456.303 199.055 454.449 198.287 453.082 196.92C451.715 195.553 450.946 193.699 450.946 191.766C450.945 189.833 451.712 187.978 453.079 186.611C454.445 185.243 456.298 184.474 458.232 184.472L458.236 184.472L465.528 184.472V199.055ZM474.764 199.055C472.831 199.055 470.978 198.287 469.611 196.92C468.244 195.554 467.476 193.701 467.475 191.768C467.473 189.836 468.239 187.982 469.605 186.614C470.97 185.246 472.822 184.475 474.755 184.472H474.764L474.769 184.472C476.701 184.475 478.554 185.244 479.919 186.612C481.285 187.98 482.051 189.833 482.051 191.766C482.05 193.699 481.282 195.552 479.916 196.919C478.55 198.286 476.697 199.054 474.764 199.055Z" fill="white"/>
<path d="M56 217L120.5 245" stroke="white"/>
<path d="M133.5 104L179.5 151" stroke="white"/>
<path d="M237 55.5L252 112.5" stroke="white"/>
<path d="M354 72.5L319 124.5" stroke="white"/>
<path d="M432 126.5L364 168.5" stroke="white"/>
<path d="M450 207.5L381.5 214.5" stroke="white"/>
<path d="M456 292.5L375.5 269" stroke="white"/>
<path d="M480 270.333C473.265 270.265 466.778 272.873 461.965 277.585C457.152 282.298 454.407 288.728 454.333 295.463C454.359 300.786 456.071 305.963 459.224 310.252C462.377 314.541 466.807 317.72 471.88 319.333C473.163 319.566 473.63 318.796 473.63 318.12C473.63 317.443 473.63 315.95 473.63 313.85C466.49 315.366 464.973 310.49 464.973 310.49C464.498 308.959 463.487 307.65 462.127 306.803C459.793 305.263 462.313 305.286 462.313 305.286C463.12 305.394 463.891 305.683 464.57 306.132C465.249 306.58 465.818 307.177 466.233 307.876C466.957 309.132 468.145 310.053 469.542 310.442C470.938 310.83 472.432 310.655 473.7 309.953C473.83 308.675 474.409 307.485 475.333 306.593C469.64 305.963 463.667 303.816 463.667 294.18C463.616 291.666 464.544 289.231 466.257 287.39C465.477 285.232 465.569 282.854 466.513 280.763C466.513 280.763 468.683 280.086 473.513 283.33C477.718 282.209 482.142 282.209 486.347 283.33C491.247 280.086 493.347 280.763 493.347 280.763C494.291 282.854 494.383 285.232 493.603 287.39C495.355 289.197 496.334 291.616 496.333 294.133C496.333 303.793 490.313 305.916 484.667 306.546C485.285 307.147 485.762 307.877 486.065 308.683C486.368 309.49 486.488 310.354 486.417 311.213V318.096C486.417 318.096 486.883 319.566 488.167 319.31C493.225 317.687 497.641 314.507 500.783 310.224C503.926 305.941 505.635 300.775 505.667 295.463C505.593 288.728 502.848 282.298 498.035 277.585C493.222 272.873 486.735 270.265 480 270.333Z" fill="white"/>
</svg>
