<svg width="1920" height="436" viewBox="0 0 1920 436" fill="none" xmlns="http://www.w3.org/2000/svg">
<g clip-path="url(#clip0_11_29)">
<circle cx="1" cy="1" r="1" transform="matrix(1 0 0 -1 188 133)" fill="white"/>
<circle cx="1" cy="1" r="1" transform="matrix(1 0 0 -1 721 86)" fill="white"/>
<circle cx="1" cy="1" r="1" transform="matrix(1 0 0 -1 43 355)" fill="white"/>
<circle cx="1" cy="1" r="1" transform="matrix(1 0 0 -1 553 314)" fill="white"/>
<circle cx="1" cy="1" r="1" transform="matrix(1 0 0 -1 965 307)" fill="white"/>
<circle cx="1" cy="1" r="1" transform="matrix(1 0 0 -1 1576 273)" fill="white"/>
<circle cx="1" cy="1" r="1" transform="matrix(1 0 0 -1 1278 76)" fill="white"/>
<circle cx="1" cy="1" r="1" transform="matrix(1 0 0 -1 246 108)" fill="white"/>
<circle cx="1" cy="1" r="1" transform="matrix(1 0 0 -1 779 61)" fill="white"/>
<circle cx="1" cy="1" r="1" transform="matrix(1 0 0 -1 101 330)" fill="white"/>
<circle cx="1" cy="1" r="1" transform="matrix(1 0 0 -1 611 289)" fill="white"/>
<circle cx="1" cy="1" r="1" transform="matrix(1 0 0 -1 1023 282)" fill="white"/>
<circle cx="1" cy="1" r="1" transform="matrix(1 0 0 -1 1634 248)" fill="white"/>
<circle cx="1" cy="1" r="1" transform="matrix(1 0 0 -1 1336 51)" fill="white"/>
<circle cx="1" cy="1" r="1" transform="matrix(1 0 0 -1 246 226)" fill="white"/>
<circle cx="1" cy="1" r="1" transform="matrix(1 0 0 -1 1792 129)" fill="white"/>
<circle cx="1" cy="1" r="1" transform="matrix(1 0 0 -1 779 179)" fill="white"/>
<circle cx="1" cy="1" r="1" transform="matrix(1 0 0 -1 611 407)" fill="white"/>
<circle cx="1" cy="1" r="1" transform="matrix(1 0 0 -1 1023 400)" fill="white"/>
<circle cx="1" cy="1" r="1" transform="matrix(1 0 0 -1 1634 366)" fill="white"/>
<circle cx="1" cy="1" r="1" transform="matrix(1 0 0 -1 1336 169)" fill="white"/>
<circle cx="1" cy="1" r="1" transform="matrix(1 0 0 -1 622 160)" fill="white"/>
<circle cx="1" cy="1" r="1" transform="matrix(1 0 0 -1 454 388)" fill="white"/>
<circle cx="1" cy="1" r="1" transform="matrix(1 0 0 -1 866 381)" fill="white"/>
<circle cx="1" cy="1" r="1" transform="matrix(1 0 0 -1 1477 347)" fill="white"/>
<circle cx="1" cy="1" r="1" transform="matrix(1 0 0 -1 1155 113)" fill="white"/>
<circle cx="1" cy="1" r="1" transform="matrix(1 0 0 -1 1399 334)" fill="white"/>
<circle cx="1" cy="1" r="1" transform="matrix(1 0 0 -1 1712 103)" fill="white"/>
<circle cx="1" cy="1" r="1" transform="matrix(1 0 0 -1 613 33)" fill="white"/>
<circle cx="1" cy="1" r="1" transform="matrix(1 0 0 -1 857 254)" fill="white"/>
<circle cx="1" cy="1" r="1" transform="matrix(1 0 0 -1 1468 220)" fill="white"/>
<circle cx="1" cy="1" r="1" transform="matrix(1 0 0 -1 304 201)" fill="white"/>
<circle cx="1" cy="1" r="1" transform="matrix(1 0 0 -1 837 154)" fill="white"/>
<circle cx="1" cy="1" r="1" transform="matrix(1 0 0 -1 159 423)" fill="white"/>
<circle cx="1" cy="1" r="1" transform="matrix(1 0 0 -1 669 382)" fill="white"/>
<circle cx="1" cy="1" r="1" transform="matrix(1 0 0 -1 1081 375)" fill="white"/>
<circle cx="1" cy="1" r="1" transform="matrix(1 0 0 -1 1692 341)" fill="white"/>
<circle cx="1" cy="1" r="1" transform="matrix(1 0 0 -1 1394 144)" fill="white"/>
<circle cx="1" cy="1" r="1" transform="matrix(1 0 0 -1 680 135)" fill="white"/>
<circle cx="1" cy="1" r="1" transform="matrix(1 0 0 -1 2 404)" fill="white"/>
<circle cx="1" cy="1" r="1" transform="matrix(1 0 0 -1 512 363)" fill="white"/>
<circle cx="1" cy="1" r="1" transform="matrix(1 0 0 -1 924 356)" fill="white"/>
<circle cx="1" cy="1" r="1" transform="matrix(1 0 0 -1 1535 322)" fill="white"/>
<circle cx="1" cy="1" r="1" transform="matrix(1 0 0 -1 1213 88)" fill="white"/>
<circle cx="1" cy="1" r="1" transform="matrix(1 0 0 -1 1457 309)" fill="white"/>
<circle cx="1" cy="1" r="1" transform="matrix(1 0 0 -1 1770 78)" fill="white"/>
<circle cx="1" cy="1" r="1" transform="matrix(1 0 0 -1 671 8)" fill="white"/>
<circle cx="1" cy="1" r="1" transform="matrix(1 0 0 -1 503 236)" fill="white"/>
<circle cx="1" cy="1" r="1" transform="matrix(1 0 0 -1 915 229)" fill="white"/>
<circle cx="1" cy="1" r="1" transform="matrix(1 0 0 -1 1526 195)" fill="white"/>
<circle cx="1" cy="1" r="1" transform="matrix(1 0 0 -1 296 67)" fill="white"/>
<circle cx="1" cy="1" r="1" transform="matrix(1 0 0 -1 829 20)" fill="white"/>
<circle cx="1" cy="1" r="1" transform="matrix(1 0 0 -1 151 289)" fill="white"/>
<circle cx="1" cy="1" r="1" transform="matrix(1 0 0 -1 661 248)" fill="white"/>
<circle cx="1" cy="1" r="1" transform="matrix(1 0 0 -1 1073 241)" fill="white"/>
<circle cx="1" cy="1" r="1" transform="matrix(1 0 0 -1 1684 207)" fill="white"/>
<circle cx="1" cy="1" r="1" transform="matrix(1 0 0 -1 1386 10)" fill="white"/>
<circle cx="1" cy="1" r="1" transform="matrix(1 0 0 -1 354 42)" fill="white"/>
<circle cx="1" cy="1" r="1" transform="matrix(1 0 0 -1 79 153)" fill="white"/>
<circle cx="1" cy="1" r="1" transform="matrix(1 0 0 -1 137 128)" fill="white"/>
<circle cx="1" cy="1" r="1" transform="matrix(1 0 0 -1 105 91)" fill="white"/>
<circle cx="1" cy="1" r="1" transform="matrix(1 0 0 -1 163 66)" fill="white"/>
<circle cx="1" cy="1" r="1" transform="matrix(1 0 0 -1 696 19)" fill="white"/>
<circle cx="1" cy="1" r="1" transform="matrix(1 0 0 -1 18 288)" fill="white"/>
<circle cx="1" cy="1" r="1" transform="matrix(1 0 0 -1 528 247)" fill="white"/>
<circle cx="1" cy="1" r="1" transform="matrix(1 0 0 -1 940 240)" fill="white"/>
<circle cx="1" cy="1" r="1" transform="matrix(1 0 0 -1 1551 206)" fill="white"/>
<circle cx="1" cy="1" r="1" transform="matrix(1 0 0 -1 1253 9)" fill="white"/>
<circle cx="1" cy="1" r="1" transform="matrix(1 0 0 -1 155 222)" fill="white"/>
<circle cx="1" cy="1" r="1" transform="matrix(1 0 0 -1 1701 125)" fill="white"/>
<circle cx="1" cy="1" r="1" transform="matrix(1 0 0 -1 688 175)" fill="white"/>
<circle cx="1" cy="1" r="1" transform="matrix(1 0 0 -1 520 403)" fill="white"/>
<circle cx="1" cy="1" r="1" transform="matrix(1 0 0 -1 932 396)" fill="white"/>
<circle cx="1" cy="1" r="1" transform="matrix(1 0 0 -1 1543 362)" fill="white"/>
<circle cx="1" cy="1" r="1" transform="matrix(1 0 0 -1 1245 165)" fill="white"/>
<circle cx="1" cy="1" r="1" transform="matrix(1 0 0 -1 531 156)" fill="white"/>
<circle cx="1" cy="1" r="1" transform="matrix(1 0 0 -1 1064 109)" fill="white"/>
<circle cx="1" cy="1" r="1" transform="matrix(1 0 0 -1 386 378)" fill="white"/>
<circle cx="1" cy="1" r="1" transform="matrix(1 0 0 -1 896 337)" fill="white"/>
<circle cx="1" cy="1" r="1" transform="matrix(1 0 0 -1 1308 330)" fill="white"/>
<circle cx="1" cy="1" r="1" transform="matrix(1 0 0 -1 1919 296)" fill="white"/>
<circle cx="1" cy="1" r="1" transform="matrix(1 0 0 -1 1621 99)" fill="white"/>
<circle cx="1" cy="1" r="1" transform="matrix(1 0 0 -1 522 29)" fill="white"/>
<circle cx="1" cy="1" r="1" transform="matrix(1 0 0 -1 213 197)" fill="white"/>
<circle cx="1" cy="1" r="1" transform="matrix(1 0 0 -1 746 150)" fill="white"/>
<circle cx="1" cy="1" r="1" transform="matrix(1 0 0 -1 68 419)" fill="white"/>
<circle cx="1" cy="1" r="1" transform="matrix(1 0 0 -1 578 378)" fill="white"/>
<circle cx="1" cy="1" r="1" transform="matrix(1 0 0 -1 990 371)" fill="white"/>
<circle cx="1" cy="1" r="1" transform="matrix(1 0 0 -1 1601 337)" fill="white"/>
<circle cx="1" cy="1" r="1" transform="matrix(1 0 0 -1 1303 140)" fill="white"/>
<circle cx="1" cy="1" r="1" transform="matrix(1 0 0 -1 589 131)" fill="white"/>
<circle cx="1" cy="1" r="1" transform="matrix(1 0 0 -1 833 352)" fill="white"/>
<circle cx="1" cy="1" r="1" transform="matrix(1 0 0 -1 1444 318)" fill="white"/>
<circle cx="1" cy="1" r="1" transform="matrix(1 0 0 -1 1122 84)" fill="white"/>
<circle cx="1" cy="1" r="1" transform="matrix(1 0 0 -1 1366 305)" fill="white"/>
<circle cx="1" cy="1" r="1" transform="matrix(1 0 0 -1 1679 74)" fill="white"/>
<circle cx="1" cy="1" r="1" transform="matrix(1 0 0 -1 580 4)" fill="white"/>
<circle cx="1" cy="1" r="1" transform="matrix(1 0 0 -1 19 268)" fill="white"/>
<circle cx="1" cy="1" r="1" transform="matrix(1 0 0 -1 1565 171)" fill="white"/>
<circle cx="1" cy="1" r="1" transform="matrix(1 0 0 -1 395 202)" fill="white"/>
<circle cx="1" cy="1" r="1" transform="matrix(1 0 0 -1 928 155)" fill="white"/>
<circle cx="1" cy="1" r="1" transform="matrix(1 0 0 -1 250 424)" fill="white"/>
<circle cx="1" cy="1" r="1" transform="matrix(1 0 0 -1 760 383)" fill="white"/>
<circle cx="1" cy="1" r="1" transform="matrix(1 0 0 -1 1172 376)" fill="white"/>
<circle cx="1" cy="1" r="1" transform="matrix(1 0 0 -1 1783 342)" fill="white"/>
<circle cx="1" cy="1" r="1" transform="matrix(1 0 0 -1 1485 145)" fill="white"/>
<circle cx="1" cy="1" r="1" transform="matrix(1 0 0 -1 386 75)" fill="white"/>
<circle cx="1" cy="1" r="1" transform="matrix(1 0 0 -1 919 28)" fill="white"/>
<circle cx="1" cy="1" r="1" transform="matrix(1 0 0 -1 241 297)" fill="white"/>
<circle cx="1" cy="1" r="1" transform="matrix(1 0 0 -1 751 256)" fill="white"/>
<circle cx="1" cy="1" r="1" transform="matrix(1 0 0 -1 1163 249)" fill="white"/>
<circle cx="1" cy="1" r="1" transform="matrix(1 0 0 -1 1774 215)" fill="white"/>
<circle cx="1" cy="1" r="1" transform="matrix(1 0 0 -1 1476 18)" fill="white"/>
<circle cx="1" cy="1" r="1" transform="matrix(1 0 0 -1 77 243)" fill="white"/>
<circle cx="1" cy="1" r="1" transform="matrix(1 0 0 -1 1623 146)" fill="white"/>
<circle cx="1" cy="1" r="1" transform="matrix(1 0 0 -1 453 177)" fill="white"/>
<circle cx="1" cy="1" r="1" transform="matrix(1 0 0 -1 986 130)" fill="white"/>
<circle cx="1" cy="1" r="1" transform="matrix(1 0 0 -1 308 399)" fill="white"/>
<circle cx="1" cy="1" r="1" transform="matrix(1 0 0 -1 818 358)" fill="white"/>
<circle cx="1" cy="1" r="1" transform="matrix(1 0 0 -1 1230 351)" fill="white"/>
<circle cx="1" cy="1" r="1" transform="matrix(1 0 0 -1 1841 317)" fill="white"/>
<circle cx="1" cy="1" r="1" transform="matrix(1 0 0 -1 1543 120)" fill="white"/>
<circle cx="1" cy="1" r="1" transform="matrix(1 0 0 -1 444 50)" fill="white"/>
<circle cx="1" cy="1" r="1" transform="matrix(1 0 0 -1 354 137)" fill="white"/>
<circle cx="1" cy="1" r="1" transform="matrix(1 0 0 -1 887 90)" fill="white"/>
<circle cx="1" cy="1" r="1" transform="matrix(1 0 0 -1 209 359)" fill="white"/>
<circle cx="1" cy="1" r="1" transform="matrix(1 0 0 -1 719 318)" fill="white"/>
<circle cx="1" cy="1" r="1" transform="matrix(1 0 0 -1 1131 311)" fill="white"/>
<circle cx="1" cy="1" r="1" transform="matrix(1 0 0 -1 1742 277)" fill="white"/>
<circle cx="1" cy="1" r="1" transform="matrix(1 0 0 -1 1444 80)" fill="white"/>
<circle cx="1" cy="1" r="1" transform="matrix(1 0 0 -1 412 112)" fill="white"/>
<circle cx="1" cy="1" r="1" transform="matrix(1 0 0 -1 945 65)" fill="white"/>
<circle cx="1" cy="1" r="1" transform="matrix(1 0 0 -1 267 334)" fill="white"/>
<circle cx="1" cy="1" r="1" transform="matrix(1 0 0 -1 777 293)" fill="white"/>
<circle cx="1" cy="1" r="1" transform="matrix(1 0 0 -1 1189 286)" fill="white"/>
<circle cx="1" cy="1" r="1" transform="matrix(1 0 0 -1 1800 252)" fill="white"/>
<circle cx="1" cy="1" r="1" transform="matrix(1 0 0 -1 1502 55)" fill="white"/>
<circle cx="1" cy="1" r="1" transform="matrix(1 0 0 -1 147 25)" fill="white"/>
<circle cx="1" cy="1" r="1" transform="matrix(1 0 0 -1 39 59)" fill="white"/>
<circle cx="1" cy="1" r="1" transform="matrix(1 0 0 -1 97 34)" fill="white"/>
<circle cx="1" cy="1" r="1" transform="matrix(1 0 0 -1 263 149)" fill="white"/>
<circle cx="1" cy="1" r="1" transform="matrix(1 0 0 -1 796 102)" fill="white"/>
<circle cx="1" cy="1" r="1" transform="matrix(1 0 0 -1 118 371)" fill="white"/>
<circle cx="1" cy="1" r="1" transform="matrix(1 0 0 -1 628 330)" fill="white"/>
<circle cx="1" cy="1" r="1" transform="matrix(1 0 0 -1 1040 323)" fill="white"/>
<circle cx="1" cy="1" r="1" transform="matrix(1 0 0 -1 1651 289)" fill="white"/>
<circle cx="1" cy="1" r="1" transform="matrix(1 0 0 -1 1353 92)" fill="white"/>
<circle cx="1" cy="1" r="1" transform="matrix(1 0 0 -1 321 124)" fill="white"/>
<circle cx="1" cy="1" r="1" transform="matrix(1 0 0 -1 854 77)" fill="white"/>
<circle cx="1" cy="1" r="1" transform="matrix(1 0 0 -1 176 346)" fill="white"/>
<circle cx="1" cy="1" r="1" transform="matrix(1 0 0 -1 686 305)" fill="white"/>
<circle cx="1" cy="1" r="1" transform="matrix(1 0 0 -1 1098 298)" fill="white"/>
<circle cx="1" cy="1" r="1" transform="matrix(1 0 0 -1 1709 264)" fill="white"/>
<circle cx="1" cy="1" r="1" transform="matrix(1 0 0 -1 1411 67)" fill="white"/>
<circle cx="1" cy="1" r="1" transform="matrix(1 0 0 -1 339 260)" fill="white"/>
<circle cx="1" cy="1" r="1" transform="matrix(1 0 0 -1 1885 163)" fill="white"/>
<circle cx="1" cy="1" r="1" transform="matrix(1 0 0 -1 872 213)" fill="white"/>
<circle cx="1" cy="1" r="1" transform="matrix(1 0 0 -1 1116 434)" fill="white"/>
<circle cx="1" cy="1" r="1" transform="matrix(1 0 0 -1 1727 400)" fill="white"/>
<circle cx="1" cy="1" r="1" transform="matrix(1 0 0 -1 1429 203)" fill="white"/>
<circle cx="1" cy="1" r="1" transform="matrix(1 0 0 -1 715 194)" fill="white"/>
<circle cx="1" cy="1" r="1" transform="matrix(1 0 0 -1 547 422)" fill="white"/>
<circle cx="1" cy="1" r="1" transform="matrix(1 0 0 -1 959 415)" fill="white"/>
<circle cx="1" cy="1" r="1" transform="matrix(1 0 0 -1 1570 381)" fill="white"/>
<circle cx="1" cy="1" r="1" transform="matrix(1 0 0 -1 1248 147)" fill="white"/>
<circle cx="1" cy="1" r="1" transform="matrix(1 0 0 -1 1805 137)" fill="white"/>
<circle cx="1" cy="1" r="1" transform="matrix(1 0 0 -1 706 67)" fill="white"/>
<circle cx="1" cy="1" r="1" transform="matrix(1 0 0 -1 28 336)" fill="white"/>
<circle cx="1" cy="1" r="1" transform="matrix(1 0 0 -1 538 295)" fill="white"/>
<circle cx="1" cy="1" r="1" transform="matrix(1 0 0 -1 950 288)" fill="white"/>
<circle cx="1" cy="1" r="1" transform="matrix(1 0 0 -1 1561 254)" fill="white"/>
<circle cx="1" cy="1" r="1" transform="matrix(1 0 0 -1 1239 20)" fill="white"/>
<circle cx="1" cy="1" r="1" transform="matrix(1 0 0 -1 1796 10)" fill="white"/>
<circle cx="1" cy="1" r="1" transform="matrix(1 0 0 -1 397 235)" fill="white"/>
<circle cx="1" cy="1" r="1" transform="matrix(1 0 0 -1 930 188)" fill="white"/>
<circle cx="1" cy="1" r="1" transform="matrix(1 0 0 -1 762 416)" fill="white"/>
<circle cx="1" cy="1" r="1" transform="matrix(1 0 0 -1 1174 409)" fill="white"/>
<circle cx="1" cy="1" r="1" transform="matrix(1 0 0 -1 1785 375)" fill="white"/>
<circle cx="1" cy="1" r="1" transform="matrix(1 0 0 -1 1487 178)" fill="white"/>
<circle cx="1" cy="1" r="1" transform="matrix(1 0 0 -1 773 169)" fill="white"/>
<circle cx="1" cy="1" r="1" transform="matrix(1 0 0 -1 605 397)" fill="white"/>
<circle cx="1" cy="1" r="1" transform="matrix(1 0 0 -1 1017 390)" fill="white"/>
<circle cx="1" cy="1" r="1" transform="matrix(1 0 0 -1 1628 356)" fill="white"/>
<circle cx="1" cy="1" r="1" transform="matrix(1 0 0 -1 1306 122)" fill="white"/>
<circle cx="1" cy="1" r="1" transform="matrix(1 0 0 -1 1863 112)" fill="white"/>
<circle cx="1" cy="1" r="1" transform="matrix(1 0 0 -1 764 42)" fill="white"/>
<circle cx="1" cy="1" r="1" transform="matrix(1 0 0 -1 86 311)" fill="white"/>
<circle cx="1" cy="1" r="1" transform="matrix(1 0 0 -1 596 270)" fill="white"/>
<circle cx="1" cy="1" r="1" transform="matrix(1 0 0 -1 1008 263)" fill="white"/>
<circle cx="1" cy="1" r="1" transform="matrix(1 0 0 -1 1619 229)" fill="white"/>
<circle cx="1" cy="1" r="1" transform="matrix(1 0 0 -1 155 325)" fill="white"/>
<circle cx="1" cy="1" r="1" transform="matrix(1 0 0 -1 1701 228)" fill="white"/>
<circle cx="1" cy="1" r="1" transform="matrix(1 0 0 -1 688 278)" fill="white"/>
<circle cx="1" cy="1" r="1" transform="matrix(1 0 0 -1 1245 268)" fill="white"/>
<circle cx="1" cy="1" r="1" transform="matrix(1 0 0 -1 531 259)" fill="white"/>
<circle cx="1" cy="1" r="1" transform="matrix(1 0 0 -1 1064 212)" fill="white"/>
<circle cx="1" cy="1" r="1" transform="matrix(1 0 0 -1 1308 433)" fill="white"/>
<circle cx="1" cy="1" r="1" transform="matrix(1 0 0 -1 1919 399)" fill="white"/>
<circle cx="1" cy="1" r="1" transform="matrix(1 0 0 -1 1621 202)" fill="white"/>
<circle cx="1" cy="1" r="1" transform="matrix(1 0 0 -1 522 132)" fill="white"/>
<circle cx="1" cy="1" r="1" transform="matrix(1 0 0 -1 1055 85)" fill="white"/>
<circle cx="1" cy="1" r="1" transform="matrix(1 0 0 -1 377 354)" fill="white"/>
<circle cx="1" cy="1" r="1" transform="matrix(1 0 0 -1 887 313)" fill="white"/>
<circle cx="1" cy="1" r="1" transform="matrix(1 0 0 -1 1299 306)" fill="white"/>
<circle cx="1" cy="1" r="1" transform="matrix(1 0 0 -1 1910 272)" fill="white"/>
<circle cx="1" cy="1" r="1" transform="matrix(1 0 0 -1 1612 75)" fill="white"/>
<circle cx="1" cy="1" r="1" transform="matrix(1 0 0 -1 213 300)" fill="white"/>
<circle cx="1" cy="1" r="1" transform="matrix(1 0 0 -1 1759 203)" fill="white"/>
<circle cx="1" cy="1" r="1" transform="matrix(1 0 0 -1 746 253)" fill="white"/>
<circle cx="1" cy="1" r="1" transform="matrix(1 0 0 -1 1303 243)" fill="white"/>
<circle cx="1" cy="1" r="1" transform="matrix(1 0 0 -1 589 234)" fill="white"/>
<circle cx="1" cy="1" r="1" transform="matrix(1 0 0 -1 1444 421)" fill="white"/>
<circle cx="1" cy="1" r="1" transform="matrix(1 0 0 -1 1122 187)" fill="white"/>
<circle cx="1" cy="1" r="1" transform="matrix(1 0 0 -1 1366 408)" fill="white"/>
<circle cx="1" cy="1" r="1" transform="matrix(1 0 0 -1 1679 177)" fill="white"/>
<circle cx="1" cy="1" r="1" transform="matrix(1 0 0 -1 580 107)" fill="white"/>
<circle cx="1" cy="1" r="1" transform="matrix(1 0 0 -1 1113 60)" fill="white"/>
<circle cx="1" cy="1" r="1" transform="matrix(1 0 0 -1 1357 281)" fill="white"/>
<circle cx="1" cy="1" r="1" transform="matrix(1 0 0 -1 1670 50)" fill="white"/>
</g>
<defs>
<clipPath id="clip0_11_29">
<rect width="1920" height="436" fill="white"/>
</clipPath>
</defs>
</svg>
